Patient4_TMGait_0pt7_01_right_11_GRF.mot
version=1
nRows=58
nColumns=19
inDegrees=no
endheader
time	F1x	F1y	F1z	M1x	M1y	M1z	F2x	F2y	F2z	M2x	M2y	M2z	EC1x	EC1y	EC1z	EC2x	EC2y	EC2z
12.06	3.6234	829.1655	79.6762	-269.1817	-81.0493	903.5959	-18.8974	9.5189	-8.392	3.338	12.7212	5.1064	-0.0592	0.0182	-0.0073	-0.0462	0.0165	0.9585
12.0717	0.16968	822.3347	77.4315	-266.232	-79.4301	889.9761	-13.0869	7.537	-5.5657	2.6601	8.6671	4.9364	-0.0592	0.0182	-0.0073	-0.0462	0.0165	0.9585
12.0834	-2.1276	812.7159	75.082	-262.3372	-77.3102	873.5505	-8.1266	5.8145	-3.2414	2.0829	5.2634	4.6909	-0.0592	0.0182	-0.0073	-0.0462	0.0165	0.9585
12.0951	-3.1648	800.4198	72.7486	-257.5897	-74.785	854.7068	-4.2888	4.4691	-1.4945	1.6434	2.6647	4.4178	-0.0592	0.0182	-0.0073	-0.0462	0.0165	0.9585
12.1069	-3.1299	785.9487	70.5135	-252.1929	-72.0083	834.0315	-1.6329	3.5662	-0.3147	1.3529	0.88837	4.2504	-0.0592	0.0182	-0.0073	-0.0462	0.0165	0.9585
12.1186	-2.3152	770.0696	68.4212	-246.4193	-69.1261	812.3216	0.056569	3.0066	0.40695	1.1822	-0.21301	4.1116	-0.0592	0.0182	-0.0073	-0.0462	0.0165	0.9585
12.1303	-0.95295	753.7018	66.5229	-240.5699	-66.2741	790.4444	0.93017	2.7133	0.76068	1.0976	-0.75675	4.0302	-0.0592	0.0182	-0.0073	-0.0462	0.0165	0.9585
12.142	0.70608	737.7461	64.8796	-234.9288	-63.5943	769.2138	1.279	2.527	0.87191	1.045	-0.92793	3.8758	-0.0592	0.0182	-0.0073	-0.0462	0.0165	0.9585
12.1537	2.5601	723.0075	63.5427	-229.7451	-61.179	749.3356	1.2224	2.3421	0.81648	0.97903	-0.82878	3.6223	-0.0592	0.0182	-0.0073	-0.0462	0.0165	0.9585
12.1654	4.5381	710.1461	62.5712	-225.2191	-59.1141	731.3961	0.97769	1.9839	0.66697	0.83868	-0.58531	3.0717	-0.0592	0.0182	-0.0073	-0.0462	0.0165	0.9585
12.1771	6.6411	699.5804	61.9601	-221.4816	-57.3964	715.7261	0.59958	1.357	0.46029	0.57833	-0.25164	2.175	-0.0592	0.0182	-0.0073	-0.0462	0.0165	0.9585
12.1889	8.946	691.6117	61.6853	-218.6249	-55.9777	702.5675	0.23924	0.29053	0.23502	0.13652	0.09467	0.72773	-0.0592	0.0182	-0.0073	-0.0462	0.0165	0.9585
12.2006	11.5982	686.4201	61.6686	-216.7057	-54.7331	692.0188	-0.096111	-1.272	0.016553	-0.51694	0.41986	-1.2898	-0.0592	0.0182	-0.0073	-0.0462	0.0165	0.9585
12.2123	14.7552	684.2117	61.8663	-215.7768	-53.5591	684.2058	-0.27141	-3.392	-0.18001	-1.3971	0.66056	-3.9709	-0.0592	0.0182	-0.0073	-0.0462	0.0165	0.9585
12.224	18.621	685.2587	62.2717	-215.902	-52.3664	679.3103	-0.28113	-5.9317	-0.32393	-2.4493	0.76238	-7.1231	-0.0592	0.0182	-0.0073	-0.0462	0.0165	0.9585
12.2357	23.2931	689.8352	62.9356	-217.1392	-51.1465	677.5395	0.011176	-8.5979	-0.37574	-3.5444	0.63044	-10.425	-0.0592	0.0182	-0.0073	-0.0462	0.0165	0.9585
12.2474	28.7921	698.1606	63.9173	-219.5255	-49.9204	679.0655	0.64932	-10.7421	-0.2819	-4.4166	0.17518	-13.0619	-0.0592	0.0182	-0.0073	-0.0462	0.0165	0.9585
12.2591	35.0205	710.1931	65.273	-223.0138	-48.7449	683.8867	1.7772	-11.394	0.029045	-4.6531	-0.73656	-13.8716	-0.0592	0.0182	-0.0073	-0.0462	0.0165	0.9585
12.2709	41.735	725.4706	67.0474	-227.4266	-47.7145	691.6062	3.421	-9.0359	0.65558	-3.6296	-2.2331	-10.9727	-0.0592	0.0182	-0.0073	-0.0462	0.0165	0.9585
12.2826	48.6274	742.9506	69.2515	-232.4102	-46.926	701.3147	5.6249	-1.7541	1.6866	-0.54166	-4.4272	-2.0322	-0.0592	0.0182	-0.0073	-0.0462	0.0165	0.9585
12.2943	55.394	760.9797	71.8103	-237.4357	-46.4123	711.5617	8.2224	12.8202	3.1954	5.591	-7.3296	15.8891	-0.0592	0.0182	-0.0073	-0.0462	0.0165	0.9585
12.306	61.7457	777.3125	74.5002	-241.8179	-46.0844	720.3721	10.9097	37.0894	5.1776	15.7692	-10.7858	45.7437	-0.0592	0.0182	-0.0073	-0.0462	0.0165	0.9585
12.3177	67.4856	789.2605	76.9497	-244.7673	-45.7117	725.4165	13.0055	73.0622	7.5339	30.8091	-14.3689	90.0476	-0.0592	0.0182	-0.0073	-0.0462	0.0165	0.9585
12.3294	72.4682	793.9587	78.6385	-245.4665	-44.9261	724.2234	13.5103	121.3475	9.9622	50.9393	-17.2594	149.5691	-0.0592	0.0182	-0.0073	-0.0462	0.0165	0.9585
12.3411	76.5163	788.6844	79.0217	-243.1505	-43.3498	714.4775	10.9063	179.9513	11.8905	75.284	-18.1181	221.9232	-0.0592	0.0182	-0.0073	-0.0462	0.0165	0.9585
12.3529	79.4177	771.2294	77.6156	-237.207	-40.6732	694.3463	3.7799	242.8902	12.4193	101.2985	-15.2805	299.7805	-0.0592	0.0182	-0.0073	-0.0462	0.0165	0.9585
12.3646	80.8476	740.3072	74.1636	-227.2893	-36.8153	662.827	-7.4574	300.6606	10.2527	125.011	-7.5117	371.4367	-0.0592	0.0182	-0.0073	-0.0462	0.0165	0.9585
12.3763	80.4984	695.9063	68.7188	-213.4125	-31.9541	619.9995	-19.6721	346.5574	4.9699	143.6469	4.2538	428.3759	-0.0592	0.0182	-0.0073	-0.0462	0.0165	0.9585
12.388	78.1392	639.498	61.6522	-196.0013	-26.4883	567.2781	-30.9808	380.5541	-1.852	157.2151	17.4341	470.2809	-0.0592	0.0182	-0.0073	-0.0462	0.0165	0.9585
12.3997	73.7839	573.5106	53.6091	-175.7541	-20.9556	506.8217	-40.0966	406.4598	-9.6612	167.3155	30.7642	501.5929	-0.0592	0.0182	-0.0073	-0.0462	0.0165	0.9585
12.4114	67.5441	501.0589	45.1905	-153.5721	-15.8033	441.3834	-46.7422	429.0901	-17.0319	176.0124	42.5205	528.2075	-0.0592	0.0182	-0.0073	-0.0462	0.0165	0.9585
12.4231	59.6942	425.5908	36.8768	-130.4727	-11.3299	373.9309	-51.1271	452.3415	-23.6014	184.9564	52.2986	554.9403	-0.0592	0.0182	-0.0073	-0.0462	0.0165	0.9585
12.4349	50.5403	350.735	29.0392	-107.543	-7.7269	307.5879	-53.8079	478.5345	-28.7819	195.1388	59.6678	584.6391	-0.0592	0.0182	-0.0073	-0.0462	0.0165	0.9585
12.4466	40.6741	279.9387	21.9558	-85.8358	-5.0233	245.229	-55.2632	508.5091	-32.8754	206.9014	65.1478	618.343	-0.0592	0.0182	-0.0073	-0.0462	0.0165	0.9585
12.4583	30.7836	216.068	15.8962	-66.2307	-3.2039	189.255	-55.8828	542.2686	-36.3288	220.1917	69.4253	656.0767	-0.0592	0.0182	-0.0073	-0.0462	0.0165	0.9585
12.47	21.6135	160.9302	10.9986	-49.2971	-2.1274	141.0537	-55.9548	578.7231	-39.7232	234.5026	73.2957	696.5617	-0.0592	0.0182	-0.0073	-0.0462	0.0165	0.9585
12.4817	13.6632	115.2663	7.3015	-35.2689	-1.6551	101.2026	-55.8663	615.9776	-43.5813	249.0095	77.4863	737.6261	-0.0592	0.0182	-0.0073	-0.0462	0.0165	0.9585
12.4934	7.2359	78.7425	4.6731	-24.0561	-1.5758	69.3217	-55.9192	652.0396	-47.9876	262.8635	82.239	776.9536	-0.0592	0.0182	-0.0073	-0.0462	0.0165	0.9585
12.5051	2.3283	50.5512	2.9269	-15.4108	-1.7316	44.7352	-56.2968	685.3643	-52.9703	275.4223	87.6289	812.7796	-0.0592	0.0182	-0.0073	-0.0462	0.0165	0.9585
12.5169	-1.0163	29.6042	1.7892	-9.0058	-1.883	26.4678	-56.9349	715.08	-57.9775	286.3428	93.0567	844.0757	-0.0592	0.0182	-0.0073	-0.0462	0.0165	0.9585
12.5286	-2.9289	14.8141	1.0357	-4.5023	-1.8831	13.6113	-57.6462	740.6161	-62.8307	295.3946	98.2316	870.2048	-0.0592	0.0182	-0.0073	-0.0462	0.0165	0.9585
12.5403	-3.5601	5.1226	0.51628	-1.5697	-1.6623	5.1661	-58.2075	761.3245	-67.1429	302.3391	102.6602	890.4201	-0.0592	0.0182	-0.0073	-0.0462	0.0165	0.9585
12.552	-3.4304	-0.48614	0.18202	0.11484	-1.3422	0.2835	-58.3186	776.543	-70.9337	306.9161	106.2313	904.0067	-0.0592	0.0182	-0.0073	-0.0462	0.0165	0.9585
12.5637	-2.8541	-3.1272	0.025173	0.89405	-1.0267	-2.0569	-57.729	785.7379	-74.0096	308.9439	108.6566	910.3934	-0.0592	0.0182	-0.0073	-0.0462	0.0165	0.9585
12.5754	-2.1764	-3.7677	-0.043217	1.0682	-0.74198	-2.6316	-56.2739	788.8279	-76.4209	308.4211	109.9281	909.5407	-0.0592	0.0182	-0.0073	-0.0462	0.0165	0.9585
12.5871	-1.473	-3.2813	-0.026931	0.90223	-0.52081	-2.2465	-53.893	786.3355	-78.0532	305.5999	109.9419	902.1084	-0.0592	0.0182	-0.0073	-0.0462	0.0165	0.9585
12.5989	-0.91887	-2.2076	-0.0023392	0.56446	-0.3479	-1.3143	-50.6857	779.1903	-78.9392	300.909	108.7983	889.2285	-0.0592	0.0182	-0.0073	-0.0462	0.0165	0.9585
12.6106	-0.45917	-1.0122	0.052122	0.19239	-0.23678	-0.29853	-46.8538	768.7512	-79.1015	294.9462	106.6386	872.5145	-0.0592	0.0182	-0.0073	-0.0462	0.0165	0.9585
12.6223	-0.17406	0.13306	0.085232	-0.1587	-0.16099	0.72219	-42.6345	756.5709	-78.6242	288.3874	103.6814	853.7635	-0.0592	0.0182	-0.0073	-0.0462	0.0165	0.9585
12.634	0.042206	1.0751	0.12741	-0.44497	-0.12328	1.5503	-38.3281	744.2925	-77.6416	281.9314	100.2093	834.8585	-0.0592	0.0182	-0.0073	-0.0462	0.0165	0.9585
12.6457	0.13418	1.8201	0.14179	-0.66708	-0.104	2.2544	-34.1432	733.4605	-76.3048	276.2198	96.4885	817.4915	-0.0592	0.0182	-0.0073	-0.0462	0.0165	0.9585
12.6574	0.21628	2.3527	0.15731	-0.82327	-0.10191	2.7478	-30.3084	725.2983	-74.8452	271.7545	92.8465	803.0009	-0.0592	0.0182	-0.0073	-0.0462	0.0165	0.9585
12.6691	0.21436	2.7463	0.15511	-0.93353	-0.1144	3.152	-26.9005	720.6107	-73.4026	268.8612	89.4686	792.2077	-0.0592	0.0182	-0.0073	-0.0462	0.0165	0.9585
12.6809	0.22104	2.9971	0.16103	-1.0032	-0.13819	3.4019	-23.9852	719.6805	-72.1677	267.6474	86.564	785.371	-0.0592	0.0182	-0.0073	-0.0462	0.0165	0.9585
12.6926	0.16042	3.1924	0.17213	-1.0573	-0.18822	3.6348	-21.4717	722.1552	-71.1435	267.9833	84.1009	782.0198	-0.0592	0.0182	-0.0073	-0.0462	0.0165	0.9585
12.7043	0.11505	3.2893	0.19473	-1.0892	-0.24821	3.7448	-19.2088	727.2333	-70.3341	269.5585	82.0088	781.2163	-0.0592	0.0182	-0.0073	-0.0462	0.0165	0.9585
12.716	0.011706	3.3352	0.22764	-1.1092	-0.33563	3.8281	-16.9261	733.8618	-69.5918	271.9751	80.0266	781.7199	-0.0592	0.0182	-0.0073	-0.0462	0.0165	0.9585
12.7277	-0.080096	3.2544	0.27169	-1.0975	-0.43228	3.7322	-14.3848	741.0514	-68.8261	274.8494	77.9483	782.4123	-0.0592	0.0182	-0.0073	-0.0462	0.0165	0.9585
